<svg width="161" height="20" viewBox="0 0 161 20" fill="none" xmlns="http://www.w3.org/2000/svg">
<path d="M0.5 20V0H4.5V4H8.5V8H12.5V12H8.5V8H4.5V20H0.5ZM16.5 20V8H12.5V4H16.5V0H20.5V20H16.5ZM28.5 20V0H40.5V4H32.5V8H40.5V12H32.5V16H40.5V20H28.5ZM48.5 20V0H60.5V4H64.5V8H60.5V16H64.5V20H60.5V16H56.5V12H52.5V20H48.5ZM52.5 8H60.34V4H52.5V8Z" fill="white"/>
<path d="M76.5 4V0H88.5V4H76.5ZM72.5 16V4H76.5V16H72.5ZM84.5 16V12H80.5V8H88.5V16H84.5ZM76.5 20V16H84.5V20H76.5ZM96.5 20V4H100.5V0H108.5V4H112.5V20H108.5V12H100.5V20H96.5ZM100.5 8H108.5V4.16H100.5V8ZM120.5 20V0H124.5V4H128.5V8H132.5V12H128.5V8H124.5V20H120.5ZM136.5 20V8H132.5V4H136.5V0H140.5V20H136.5ZM148.5 20V0H160.5V4H152.5V8H160.5V12H152.5V16H160.5V20H148.5Z" fill="#FF462D"/>
</svg>
